<?xml version="1.0" encoding="UTF-8" standalone="no"?>
<!-- Created with Inkscape (http://www.inkscape.org/) -->

<svg
   xmlns:dc="http://purl.org/dc/elements/1.1/"
   xmlns:cc="http://creativecommons.org/ns#"
   xmlns:rdf="http://www.w3.org/1999/02/22-rdf-syntax-ns#"
   xmlns:svg="http://www.w3.org/2000/svg"
   xmlns="http://www.w3.org/2000/svg"
   xmlns:sodipodi="http://sodipodi.sourceforge.net/DTD/sodipodi-0.dtd"
   xmlns:inkscape="http://www.inkscape.org/namespaces/inkscape"
   width="2800px"
   height="1200px"
   viewBox="0 0 2800 1200"
   version="1.1"
   id="SVGRoot"
   inkscape:version="0.92.0 r15299"
   sodipodi:docname="Frente de Izquierda y de los Trabajadores Logo.svg">
  <sodipodi:namedview
     id="base"
     pagecolor="#ffffff"
     bordercolor="#666666"
     borderopacity="1.0"
     inkscape:pageopacity="0.0"
     inkscape:pageshadow="2"
     inkscape:zoom="0.25"
     inkscape:cx="1400"
     inkscape:cy="600"
     inkscape:document-units="px"
     inkscape:current-layer="layer1"
     showgrid="false"
     inkscape:window-width="1366"
     inkscape:window-height="705"
     inkscape:window-x="-8"
     inkscape:window-y="-8"
     inkscape:window-maximized="1" />
  <defs
     id="defs5733" />
  <metadata
     id="metadata5736">
    <rdf:RDF>
      <cc:Work
         rdf:about="">
        <dc:format>image/svg+xml</dc:format>
        <dc:type
           rdf:resource="http://purl.org/dc/dcmitype/StillImage" />
        <dc:title></dc:title>
      </cc:Work>
    </rdf:RDF>
  </metadata>
  <g
     id="layer1"
     inkscape:groupmode="layer"
     inkscape:label="Capa 1">
    <path
       style="fill:#b12929;fill-opacity:1;stroke:none;stroke-width:0.99999994px;stroke-linecap:butt;stroke-linejoin:miter;stroke-opacity:1"
       d="M 21,76.813734 272.10312,1152.6862 2397.0211,969.54396 2609,834.81374 l 22,-32.00001 148,-627.99999 z"
       id="path5647"
       inkscape:connector-curvature="0" />
    <path
       style="fill:#000000;stroke:none;stroke-width:0.99999994px;stroke-linecap:butt;stroke-linejoin:miter;stroke-opacity:1"
       d="m 121.50002,134.31373 50.50001,877.24997 2552.80177,68.575 L 2573.0303,47.31375 Z"
       id="path5481"
       inkscape:connector-curvature="0" />
    <g
       transform="matrix(3.7795276,0,0,3.7795276,1353,84.294049)"
       id="g5731">
      <path
         inkscape:connector-curvature="0"
         transform="scale(0.26458333)"
         id="path5587"
         d="m 89.03125,826.53125 c -27.240401,-0.0461 -47.496165,19.99831 -47.447266,46.94922 0.03704,20.36081 12.567472,37.93907 31.388672,44.03125 8.805899,2.85041 19.745835,3.15395 29.082034,0.80664 13.505,-3.39549 25.81891,-14.19408 30.63281,-26.86328 12.2243,-32.17172 -9.76015,-64.86672 -43.65625,-64.92383 z m 878,0 c -27.24038,-0.0461 -47.49617,19.99831 -47.44727,46.94922 0.0378,20.36081 12.5675,37.93907 31.38868,44.03125 8.80592,2.85041 19.74584,3.15395 29.08203,0.80664 13.50501,-3.39549 25.81891,-14.19408 30.63281,-26.86328 12.2243,-32.17172 -9.7602,-64.86672 -43.65625,-64.92383 z m -517.96094,0.99219 c -1.429,-0.0113 -37.82645,88.69965 -37.13476,90.50195 0.69611,1.81417 5.12234,1.97551 6.68945,0.24414 0.6223,-0.68749 2.34112,-4.17502 3.82031,-7.75 l 2.68946,-6.5 h 23.9375 23.93554 l 2.68946,6.5 c 1.47919,3.57498 3.19996,7.06251 3.82226,7.75 1.5188,1.67788 6.98206,1.59568 7.63867,-0.11523 0.65439,-1.70529 -36.7146,-90.62568 -38.08789,-90.63086 z m 172,0 c -1.429,-0.0113 -37.82649,88.69965 -37.13476,90.50195 0.69607,1.81417 5.12043,1.97551 6.6875,0.24414 0.6223,-0.68749 2.34307,-4.17502 3.82226,-7.75 l 2.68946,-6.5 h 23.93554 23.9375 l 2.68946,6.5 c 1.47919,3.57498 3.19801,7.06251 3.82031,7.75 1.5188,1.67788 6.98404,1.59568 7.64062,-0.11523 0.65443,-1.70529 -36.71456,-90.62568 -38.08789,-90.63086 z m 152,0 c -1.429,-0.0113 -37.82645,88.69965 -37.13476,90.50195 0.69611,1.81417 5.12039,1.97551 6.6875,0.24414 0.6223,-0.68749 2.34307,-4.17502 3.82226,-7.75 l 2.68946,-6.5 h 23.93554 23.9375 l 2.68946,6.5 c 1.47923,3.57498 3.19801,7.06251 3.82031,7.75 1.5188,1.67788 6.98404,1.59568 7.64062,-0.11523 0.65439,-1.70529 -36.7146,-90.62568 -38.08789,-90.63086 z m -242.00195,0.10742 c -2.11334,0.002 -4.43458,0.029 -6.99609,0.0762 l -17,0.3125 -0.26172,44.93555 c -0.20448,35.2515 0.0113,45.12239 1,45.8125 0.6932,0.4837 10.26174,0.66913 21.26172,0.41015 14.9463,-0.35181 21.11718,-0.87887 24.42968,-2.08398 6.62363,-2.4107 10.61227,-5.93958 13.58789,-12.02148 6.56081,-13.40981 1.2458,-30.60206 -10.7539,-34.78516 -3.5246,-1.22869 -3.50134,-2.84699 0.082,-5.49609 4.11647,-3.04351 6.1543,-8.0772 6.1543,-15.20508 0,-7.84059 -1.69351,-11.7919 -7,-16.33399 -5.1283,-4.38969 -9.71055,-5.63205 -24.50391,-5.62109 z m -177.95313,0.0312 c -1.14445,0.004 -2.32481,0.0209 -3.54296,0.0508 l -12.5,0.30664 -0.26172,44.93555 c -0.20451,35.28442 0.01,45.1061 1,45.73437 1.5143,0.96133 4.02118,1.05102 6.17968,0.22266 1.3039,-0.5003 1.58311,-2.47689 1.59571,-11.25 0.01,-5.85358 0.35381,-11.17292 0.76562,-11.82031 0.7074,-1.11243 20.72765,-2.27647 21.53125,-1.25196 0.1855,0.2366 3.8392,5.37973 8.1211,11.42969 8.75099,12.3648 9.89439,13.506 13.50781,13.48438 6.10469,-0.0378 5.81221,-1.19155 -3.69727,-14.52735 -4.99169,-7.00017 -8.87766,-13.24396 -8.63476,-13.87695 0.24291,-0.63311 2.0349,-2.00981 3.98242,-3.05859 4.56487,-2.45832 9.1617,-7.7279 11.75,-13.47071 1.57909,-3.50358 2.05078,-6.62185 2.05078,-13.55078 0,-10.53109 -2.17901,-16.603 -8.19141,-22.83594 -7.40239,-7.67398 -16.48943,-10.58166 -33.65625,-10.52148 z m 697.99807,0 c -1.1445,0.004 -2.3248,0.0209 -3.543,0.0508 l -12.5,0.30664 -0.2598,44.93555 c -0.2044,35.28442 0.011,45.1061 1,45.73437 1.5144,0.96133 4.0212,1.05102 6.1797,0.22266 1.3039,-0.5003 1.5831,-2.47689 1.5957,-11.25 0.011,-5.85358 0.3519,-11.17292 0.7637,-11.82031 0.7074,-1.11243 20.7296,-2.27647 21.5332,-1.25196 0.1856,0.2366 3.8392,5.37973 8.1211,11.42969 8.751,12.3648 9.8944,13.506 13.5078,13.48438 6.1047,-0.0378 5.8103,-1.19155 -3.6992,-14.52735 -4.9917,-7.00017 -8.8757,-13.24396 -8.6328,-13.87695 0.243,-0.63311 2.0349,-2.00981 3.9824,-3.05859 4.5649,-2.45832 9.1598,-7.7279 11.7481,-13.47071 1.579,-3.50358 2.0527,-6.62185 2.0527,-13.55078 0,-10.53109 -2.179,-16.603 -8.1914,-22.83594 -7.4024,-7.67398 -16.4914,-10.58166 -33.6582,-10.52148 z m -1256.11525,0.0469 c -1.29421,-0.004 -2.62759,0.008 -4.00391,0.0332 l -14.92187,0.27734 -0.26172,44.93555 c -0.20432,35.25082 0.011,45.12302 1,45.81445 1.8802,1.3146 30.74346,-0.0955 37.44336,-1.83008 h 0.002 c 16.5071,-4.27249 27.73198,-15.13381 31.95508,-30.91992 4.2044,-15.71569 -0.72002,-35.78849 -11.13282,-45.38672 -10.20253,-9.40432 -20.66697,-12.86562 -40.08007,-12.92383 z m 1056,0 c -1.29421,-0.004 -2.62955,0.008 -4.00586,0.0332 l -14.92188,0.27734 -0.25976,44.93555 c -0.2041,35.25082 0.0113,45.12302 1,45.81445 1.8802,1.3146 30.74346,-0.0955 37.44336,-1.83008 16.50712,-4.27249 27.73194,-15.13381 31.95507,-30.91992 4.20439,-15.71569 -0.71807,-35.78849 -11.13086,-45.38672 -10.20252,-9.40432 -20.66698,-12.86562 -40.08007,-12.92383 z m -762.406253,7.31055 c 9.848999,0 10.943145,0.20759 17.123043,3.25 7.8265,3.853 13.97052,10.12852 17.69532,18.07422 2.3754,5.06699 2.66211,6.85441 2.66211,16.67578 0,10.02841 -0.25766,11.55417 -2.90235,17.28125 -7.1293,15.43862 -25.660102,24.7729 -42.191404,21.25 -10.6017,-2.25929 -20.188857,-9.3937 -25.160157,-18.7207 -10.793401,-20.25071 -3.280228,-45.2723 16.513672,-54.99219 5.190603,-2.54891 6.744767,-2.81836 16.259766,-2.81836 z m 878.000003,0 c 9.84899,0 10.94314,0.20759 17.12304,3.25 7.8265,3.853 13.97052,10.12852 17.69536,18.07422 2.3754,5.06699 2.6621,6.85441 2.6621,16.67578 0,10.02841 -0.2577,11.55417 -2.9024,17.28125 -7.12926,15.43862 -25.66007,24.7729 -42.19138,21.25 -10.60169,-2.25929 -20.18883,-9.3937 -25.16016,-18.7207 -10.79339,-20.25071 -3.28021,-45.2723 16.51367,-54.99219 5.19062,-2.54891 6.74477,-2.81836 16.25977,-2.81836 z m -1169.75,0.63281 c 23.13995,-0.16557 36.63923,9.55948 40.72851,29.33399 3.5874,17.34739 -3.97558,34.49193 -18.30078,41.48633 -9.2832,4.53271 -30.91339,6.9023 -33.58789,3.67968 -0.8118,-0.9781 -1.06085,-11.72908 -0.87305,-37.75 l 0.26368,-36.38281 9.5,-0.32031 c 0.76652,-0.0259 1.52308,-0.0415 2.26953,-0.0469 z m 1055.99804,0 c 23.13997,-0.16557 36.63923,9.55948 40.72852,29.33399 3.58741,17.34739 -3.97363,34.49193 -18.29883,41.48633 -9.2832,4.53271 -30.91338,6.9023 -33.58789,3.67968 -0.81177,-0.9781 -1.06085,-11.72908 -0.87305,-37.75 l 0.26172,-36.38281 9.5,-0.32031 c 0.76652,-0.0259 1.52308,-0.0415 2.26953,-0.0469 z m -496.02734,0.041 c 19.18981,-0.099 28.86914,8.33255 28.86914,25.15625 0,17.55379 -9.38409,25.66992 -29.67969,25.66992 -6.7514,0 -9.63397,-0.36671 -9.98047,-1.26953 -0.268,-0.69831 -0.36653,-12.06081 -0.21875,-25.25 l 0.26954,-23.98047 8.85351,-0.29101 c 0.63881,-0.021 1.26769,-0.032 1.88672,-0.0352 z m 698,0 c 19.1898,-0.099 28.8691,8.33255 28.8691,25.15625 0,17.55379 -9.384,25.66992 -29.6796,25.66992 -6.7515,0 -9.634,-0.36671 -9.9805,-1.26953 -0.268,-0.69831 -0.3665,-12.06081 -0.2188,-25.25 l 0.2696,-23.98047 8.8535,-0.29101 c 0.6388,-0.021 1.2677,-0.032 1.8867,-0.0352 z m -520.16992,0.0195 c 10.70447,0.0594 13.86106,1.36202 17.24414,5.97852 2.53822,3.46359 2.72327,12.0728 0.35547,16.5625 -2.87902,5.45918 -6.4988,6.66748 -21.22071,7.08398 -10.63339,0.30085 -13.27937,0.0941 -14.28125,-1.11328 h 0.002 c -0.87103,-1.04942 -1.14937,-5.37978 -0.95117,-14.84375 l 0.27929,-13.36133 13.5,-0.26367 c 1.85998,-0.0363 3.54306,-0.0515 5.07227,-0.043 z m -85.61719,10.60742 c 0.93101,0.0378 19.53507,45.58028 19.54297,47.8418 0,0.62869 -0.70812,1.41619 -1.57813,1.75 -1.88201,0.72219 -34.3643,0.67298 -36.16796,-0.0547 -0.68754,-0.27742 -1.23071,-1.25526 -1.20508,-2.17187 0.0771,-2.74632 18.37662,-47.40643 19.4082,-47.36524 z m 171.99805,0 c 0.93101,0.0378 19.53507,45.58028 19.54297,47.8418 0,0.62869 -0.7062,1.41619 -1.57618,1.75 -1.88201,0.72219 -34.36621,0.67298 -36.16992,-0.0547 -0.68749,-0.27742 -1.22871,-1.25526 -1.20312,-2.17187 0.0771,-2.74632 18.37466,-47.40643 19.40625,-47.36524 z m 152,0 c 0.93097,0.0378 19.53507,45.58028 19.54297,47.8418 0,0.62869 -0.70617,1.41619 -1.57618,1.75 -1.88197,0.72219 -34.36621,0.67298 -36.16992,-0.0547 -0.68749,-0.27742 -1.22871,-1.25526 -1.20312,-2.17187 0.0771,-2.74632 18.37463,-47.40643 19.40625,-47.36524 z m -242.20508,26.16211 c 6.85482,0.0676 14.28018,0.59964 17.47656,1.54883 6.43004,1.90949 10.69941,6.55275 12.09961,13.16016 2.40503,11.34867 -3.12091,20.987 -13.40039,23.37109 -5.97471,1.38573 -28.77744,1.20318 -30.22266,-0.24219 -0.83977,-0.83977 -1.19921,-6.33408 -1.19921,-18.30078 0,-11.9667 0.3594,-17.46097 1.19921,-18.30078 0.90875,-0.90875 7.19206,-1.30389 14.04688,-1.23633 z"
         style="fill:#ffffff;fill-rule:nonzero;stroke-width:0.99999994" />
      <path
         id="path5583"
         d="m 51.437987,242.4449 c 1.297067,-0.61812 1.848432,-1.06908 2.431759,-1.98885 1.000787,-1.57811 1.241478,-3.51687 0.677439,-5.45706 -0.647806,-2.2284 -1.964108,-3.36044 -6.658345,-5.72635 -3.719301,-1.87454 -3.984599,-2.05965 -4.55938,-3.18098 -0.664342,-1.29606 -0.635211,-2.76174 0.07504,-3.77579 1.496616,-2.13672 5.565802,-2.037 7.483422,0.18339 0.574861,0.66561 0.629047,0.67667 1.389063,0.28363 1.064868,-0.55068 0.996156,-1.08093 -0.294508,-2.27248 -2.588339,-2.38953 -7.301997,-2.46814 -9.72693,-0.16219 -1.198033,1.13924 -1.623086,2.23224 -1.623086,4.17362 0,3.09806 1.274471,4.5067 6.250305,6.90819 1.806019,0.87164 3.685169,1.96347 4.175866,2.42625 2.504096,2.36165 1.560962,6.19295 -1.76784,7.18148 -2.859247,0.8491 -5.1825,0.24202 -7.230454,-1.88939 l -1.390994,-1.44769 -0.812192,0.42 c -0.963374,0.49816 -0.96311,0.49662 -0.267679,1.62187 2.123414,3.43575 7.659873,4.69847 11.848518,2.70235 z"
         style="fill:#ffffff;fill-rule:nonzero;stroke-width:0.26458332"
         inkscape:connector-curvature="0" />
      <path
         id="path5581"
         d="m 185.92361,243.16898 c 1.325,-0.21545 3.0072,-1.50246 3.72821,-2.85242 0.59659,-1.11694 0.60251,-1.22674 0.60251,-11.18219 V 219.0802 h -1.05833 -1.05833 l -0.1323,9.78959 c -0.12144,8.9862 -0.17322,9.85721 -0.63116,10.61363 -1.41129,2.33105 -5.08048,2.49195 -6.92192,0.30353 -0.59206,-0.70364 -0.78463,-0.78471 -1.36917,-0.57632 -1.21052,0.43154 -1.35353,1.04039 -0.46302,1.9712 1.13919,1.19073 2.33378,1.85764 3.76362,2.10113 1.23494,0.2103 1.62234,0.19783 3.53989,-0.11398 z"
         style="fill:#ffffff;fill-rule:nonzero;stroke-width:0.26458332"
         inkscape:connector-curvature="0" />
      <path
         id="path5575"
         d="m 326.60465,242.4449 c 1.29707,-0.61812 1.84844,-1.06908 2.43176,-1.98885 1.00079,-1.57811 1.24148,-3.51687 0.67744,-5.45706 -0.6478,-2.2284 -1.96411,-3.36044 -6.65834,-5.72635 -3.7193,-1.87454 -3.9846,-2.05965 -4.55938,-3.18098 -0.66435,-1.29606 -0.63521,-2.76174 0.075,-3.77579 1.49662,-2.13672 5.5658,-2.037 7.48343,0.18339 0.57486,0.66561 0.62904,0.67667 1.38906,0.28363 1.06487,-0.55068 0.99615,-1.08093 -0.29451,-2.27248 -2.58834,-2.38953 -7.302,-2.46814 -9.72693,-0.16219 -1.19803,1.13924 -1.62309,2.23224 -1.62309,4.17362 0,3.09806 1.27447,4.5067 6.25031,6.90819 1.80602,0.87164 3.68517,1.96347 4.17586,2.42625 2.5041,2.36165 1.56097,6.19295 -1.76784,7.18148 -2.85924,0.8491 -5.1825,0.24202 -7.23045,-1.88939 l -1.39099,-1.44769 -0.8122,0.42 c -0.96337,0.49816 -0.9631,0.49662 -0.26767,1.62187 2.12341,3.43575 7.65987,4.69847 11.84851,2.70235 z"
         style="fill:#ffffff;fill-rule:nonzero;stroke-width:0.26458332"
         inkscape:connector-curvature="0" />
      <path
         id="path5569"
         d="m -19.737496,243.05839 c 0.199866,-0.12671 0.314193,-0.55362 0.264583,-0.98814 l -0.08734,-0.76505 -6.064435,-0.0712 c -4.019762,-0.0472 -6.185905,-0.17203 -6.424692,-0.37023 -0.271806,-0.22559 -0.341921,-0.98764 -0.285565,-3.10378 l 0.07469,-2.80477 5.423959,-0.13229 5.423958,-0.13229 v -0.92604 -0.92604 l -5.354135,-0.0716 c -5.290555,-0.0708 -5.355881,-0.0786 -5.49902,-0.66146 -0.07969,-0.32441 -0.111125,-2.91156 -0.06982,-5.74921 l 0.07506,-5.15938 6.085417,-0.14483 c 3.346979,-0.0797 6.122723,-0.16896 6.168337,-0.19844 0.04559,-0.0295 0.04559,-0.44056 0,-0.9135 l -0.08292,-0.8599 h -7.276042 -7.276042 l -0.0689,11.88892 c -0.05411,9.33567 0.0026,11.93441 0.264583,12.10064 0.446511,0.28348 14.260089,0.27276 14.70832,-0.0114 z"
         style="fill:#ffffff;fill-rule:nonzero;stroke-width:0.26458332"
         inkscape:connector-curvature="0" />
      <path
         id="path5567"
         d="m 8.4639388,243.12899 c 0.2678377,-0.10279 0.4185179,-0.48379 0.4185179,-1.05834 v -0.89773 H 3.3791233 c -3.9275808,0 -5.5942441,-0.0909 -5.8208333,-0.3175 -0.2365904,-0.23659 -0.3175,-3.07255 -0.3175,-11.12771 V 218.9175 l -1.1244792,0.0814 -1.1244791,0.0813 -0.068897,11.88892 c -0.054107,9.33567 0.00265,11.93441 0.2645833,12.10064 0.3858683,0.24498 12.649835,0.29967 13.2764213,0.0592 z"
         style="fill:#ffffff;fill-rule:nonzero;stroke-width:0.26458332"
         inkscape:connector-curvature="0" />
      <path
         id="path5565"
         d="m 76.623145,232.17709 c 0.07681,-6.03911 0.166106,-11.00661 0.198438,-11.03889 0.03233,-0.0323 1.6959,-0.0918 3.696811,-0.13229 l 3.638021,-0.0736 0.08234,-0.99581 0.08234,-0.99584 -8.681297,0.0698 -8.681297,0.0698 v 0.92605 0.92604 l 3.561239,0.0742 c 2.441946,0.0509 3.625691,0.17563 3.766264,0.39688 0.112766,0.17745 0.206852,5.09508 0.209074,10.92803 0.0026,5.83298 0.08906,10.69041 0.192987,10.79431 0.103902,0.10393 0.550387,0.15354 0.992188,0.11025 l 0.803248,-0.0787 z"
         style="fill:#ffffff;fill-rule:nonzero;stroke-width:0.26458332"
         inkscape:connector-curvature="0" />
      <path
         id="path5533"
         d="m 310.46241,243.0584 c 0.19986,-0.12671 0.31419,-0.55362 0.26458,-0.98814 l -0.0873,-0.76505 -6.06443,-0.0712 c -4.01976,-0.0472 -6.18591,-0.17203 -6.4247,-0.37023 -0.2718,-0.22559 -0.34192,-0.98764 -0.28556,-3.10378 l 0.0747,-2.80477 5.42396,-0.13229 5.42396,-0.13229 v -0.92604 -0.92604 l -5.35414,-0.0716 c -5.29055,-0.0708 -5.35588,-0.0786 -5.49902,-0.66146 -0.0797,-0.32441 -0.11112,-2.91156 -0.0698,-5.74921 l 0.0751,-5.15938 6.08542,-0.14483 c 3.34698,-0.0797 6.12272,-0.16896 6.16834,-0.19844 0.0456,-0.0295 0.0456,-0.44056 0,-0.9135 l -0.0829,-0.8599 h -7.27605 -7.27604 l -0.0689,11.88892 c -0.0541,9.33567 0.003,11.93441 0.26459,12.10064 0.44651,0.28348 14.26009,0.27276 14.70832,-0.0114 z"
         style="fill:#ffffff;fill-rule:nonzero;stroke-width:0.26458332"
         inkscape:connector-curvature="0" />
      <path
         id="path5531"
         d="m -81.869697,239.2457 v -3.77934 l 4.365625,-8.01984 c 2.401094,-4.41089 4.365625,-8.1344 4.365625,-8.27442 0,-0.14004 -0.506015,-0.21799 -1.124479,-0.17324 l -1.124479,0.0813 -3.485303,6.35 c -1.916933,3.4925 -3.556291,6.6179 -3.643075,6.94532 -0.238098,0.89852 -0.834257,0.71564 -1.293839,-0.39688 -0.225425,-0.5457 -1.88923,-3.67109 -3.697393,-6.94531 l -3.287527,-5.95313 -1.226106,-0.0806 c -0.725302,-0.0477 -1.226132,0.0319 -1.226132,0.19494 0,0.15158 2.024063,3.93452 4.497917,8.40653 l 4.497916,8.13094 v 3.64651 3.64652 h 1.190625 1.190625 z"
         style="fill:#ffffff;fill-rule:nonzero;stroke-width:0.26458332"
         inkscape:connector-curvature="0" />
    </g>
    <g
       transform="matrix(3.7795276,0,0,3.7795276,1353,84.294049)"
       id="g5720">
      <path
         inkscape:connector-curvature="0"
         transform="scale(0.26458333)"
         id="path5529"
         d="m -590.94727,455.72266 c -24.16339,0.41945 -48.57005,5.76403 -71.44726,16.44336 -31.32136,14.62114 -59.26699,41.93109 -75.01367,73.31054 -16.61473,33.10927 -21.66604,73.38984 -13.9668,111.35156 2.9681,14.63437 7.07154,26.35348 14.42578,41.19141 22.34071,45.0745 66.34528,77.34758 118.08984,86.60742 14.15573,2.53331 43.01047,3.06199 55.92969,1.02539 11.77346,-1.85601 29.44893,-6.61145 39.46094,-10.61718 4.83307,-1.93369 9.40725,-3.50803 10.16406,-3.49805 0.75682,0.0113 11.72534,11.9518 24.375,26.53711 15.23089,17.5615 23.5586,26.42234 24.65625,26.23242 0.91162,-0.15798 10.68079,-7.71212 21.70703,-16.78711 11.02625,-9.07502 20.05855,-17.175 20.07227,-18 0.0151,-0.82499 -9.62922,-12.525 -21.42774,-26 -11.79847,-13.475 -21.45717,-24.95 -21.46484,-25.5 -0.008,-0.55003 2.48997,-3.92498 5.55078,-7.5 49.9482,-58.33916 52.50528,-148.55402 5.96289,-210.38086 -31.93282,-42.41955 -83.91475,-65.3388 -137.07422,-64.41601 z m 3.01758,58.82422 c 2.76262,0 5.48931,0.099 8.17774,0.29492 2.68843,0.19596 5.3388,0.48725 7.94726,0.875 2.60846,0.38775 5.17455,0.8719 7.69727,1.44726 2.52272,0.57537 5.00044,1.24315 7.43164,2.00196 2.4312,0.7588 4.81649,1.6088 7.15039,2.54687 2.3339,0.93807 4.61682,1.96302 6.84766,3.07617 2.23083,1.11316 4.40926,2.31359 6.53125,3.59766 2.12198,1.28407 4.18795,2.65271 6.19531,4.10351 2.00736,1.45081 3.95679,2.98429 5.84375,4.59766 1.88696,1.61337 3.71187,3.30637 5.47265,5.07813 1.76078,1.77176 3.45711,3.6209 5.08594,5.54687 1.62883,1.92598 3.19055,3.92789 4.68164,6.00391 1.4911,2.07601 2.91022,4.22734 4.25781,6.44922 1.3476,2.22188 2.62201,4.51533 3.82032,6.8789 1.19831,2.36357 2.32198,4.79775 3.36523,7.29883 1.04325,2.50108 2.00626,5.0687 2.88867,7.70313 1.04513,3.12018 1.95797,6.34162 2.73633,9.64062 0.77837,3.299 1.42368,6.67585 1.93555,10.10742 0.51187,3.43157 0.88913,6.91765 1.13476,10.43555 0.24564,3.5179 0.35823,7.06702 0.3379,10.625 -0.0203,3.55798 -0.17295,7.12592 -0.45899,10.67773 -0.28604,3.55182 -0.70438,7.08848 -1.25586,10.58789 -0.55148,3.49942 -1.23608,6.96057 -2.05273,10.36133 -0.81666,3.40076 -1.7661,6.74023 -2.84766,9.9961 -0.97502,2.93514 -2.08749,5.86166 -3.24805,8.60742 -1.16055,2.74576 -2.36944,5.31157 -3.53515,7.52539 -1.16572,2.21382 -2.2888,4.07669 -3.2793,5.41601 -0.49525,0.66967 -0.95738,1.20694 -1.375,1.59375 -0.41762,0.38681 -0.78997,0.62246 -1.10742,0.6836 -0.25104,0.0484 -0.92365,-0.42172 -1.98633,-1.37891 -1.06267,-0.95718 -2.51488,-2.40199 -4.32812,-4.30078 -3.62649,-3.79757 -8.69468,-9.41352 -14.95704,-16.59375 -6.33643,-7.26514 -11.36643,-12.84747 -14.91015,-16.55469 -1.77186,-1.85361 -3.17195,-3.23776 -4.17774,-4.13086 -1.00578,-0.8931 -1.61806,-1.29445 -1.8125,-1.17968 -0.6647,0.39231 -10.54169,8.32988 -21.94922,17.63867 -7.36648,6.0112 -12.49544,10.34017 -15.71679,13.28711 -1.61068,1.47346 -2.74431,2.60222 -3.44141,3.42187 -0.69709,0.81965 -0.9589,1.32964 -0.82422,1.57031 0.41711,0.74537 8.62681,10.416 18.24219,21.49024 9.61538,11.07424 17.62202,20.51223 17.79297,20.97266 0.11427,0.3078 0.0767,0.60813 -0.0996,0.89843 -0.17631,0.2903 -0.4915,0.57118 -0.92969,0.8418 -0.87637,0.54123 -2.24841,1.04081 -4,1.49023 -1.75159,0.44943 -3.88218,0.84928 -6.27929,1.18946 -2.39712,0.34018 -5.0601,0.62048 -7.87305,0.83398 -5.62591,0.427 -11.8545,0.58275 -17.76563,0.39844 -2.95556,-0.0922 -5.83134,-0.26989 -8.51367,-0.54102 -2.68233,-0.27113 -5.17019,-0.63597 -7.34961,-1.10351 -2.91373,-0.62508 -5.76658,-1.36084 -8.55664,-2.20508 -2.79005,-0.84424 -5.51556,-1.79588 -8.17578,-2.85547 -2.66022,-1.05959 -5.25506,-2.22693 -7.7793,-3.49805 -2.52423,-1.27111 -4.97923,-2.64617 -7.36132,-4.125 -2.3821,-1.47882 -4.69198,-3.06142 -6.92579,-4.74414 -2.2338,-1.68272 -4.39133,-3.46486 -6.4707,-5.34765 -2.07937,-1.88279 -4.07927,-3.86627 -5.99805,-5.94532 -1.91877,-2.07904 -3.75578,-4.25391 -5.50781,-6.52539 -2.21384,-2.8702 -4.33684,-6.0719 -6.33203,-9.51953 -1.99519,-3.44763 -3.86287,-7.14232 -5.56641,-11.00195 -1.70353,-3.85964 -3.24316,-7.88401 -4.58203,-11.99023 -1.33886,-4.10623 -2.47772,-8.29309 -3.3789,-12.48047 -0.62886,-2.92201 -1.10014,-6.76562 -1.41602,-11.06641 -0.31588,-4.30079 -0.47603,-9.05911 -0.47851,-13.81055 -0.002,-4.75143 0.15155,-9.49558 0.46289,-13.76953 0.31133,-4.27395 0.78068,-8.07697 1.40625,-10.94531 0.65818,-3.01608 1.38277,-5.929 2.17773,-8.74414 0.79496,-2.81514 1.6602,-5.53418 2.60156,-8.16602 0.94136,-2.63184 1.95732,-5.17638 3.05469,-7.64257 1.09737,-2.4662 2.27607,-4.85369 3.53906,-7.17188 1.26299,-2.31819 2.6106,-4.56608 4.04883,-6.75391 1.43823,-2.18783 2.96677,-4.3155 4.58985,-6.39062 1.62307,-2.07512 3.34065,-4.09807 5.1582,-6.07813 1.81754,-1.98005 3.73424,-3.91768 5.75586,-5.82031 2.28745,-2.15282 4.62287,-4.16298 7.00976,-6.03515 2.3869,-1.87218 4.82538,-3.60634 7.32032,-5.20118 2.49493,-1.59483 5.04664,-3.05031 7.6582,-4.37109 2.61156,-1.32078 5.2847,-2.50661 8.02148,-3.55664 2.73679,-1.05003 5.5376,-1.96547 8.40821,-2.74805 2.8706,-0.78258 5.80925,-1.43275 8.82226,-1.95117 3.01302,-0.51842 6.09966,-0.90455 9.26367,-1.16211 3.16402,-0.25756 6.40686,-0.38476 9.73047,-0.38476 z"
         style="fill:#ffffff;fill-rule:nonzero;stroke-width:0.99999994" />
      <path
         id="path5525"
         d="m -53.448472,207.57452 c 7.512261,-1.28429 13.355478,-4.1947 17.90102,-8.91622 4.662302,-4.84279 7.171928,-10.54829 7.922075,-18.01029 0.190817,-1.89808 0.259477,-12.16296 0.206666,-30.88863 l -0.07911,-28.04583 -8.069791,-0.074 c -4.438386,-0.0407 -8.334217,-0.01 -8.657405,0.0693 l -0.587613,0.14331 -0.08361,29.43179 c -0.07787,27.41122 -0.116231,29.54077 -0.558905,31.01928 -1.646106,5.49791 -4.439815,8.2358 -9.901476,9.70362 -2.688087,0.72242 -9.481159,0.79573 -12.465262,0.13453 -5.522462,-1.22364 -8.874707,-4.36125 -10.511181,-9.83815 -0.441299,-1.47695 -0.48014,-3.62626 -0.55798,-30.86411 -0.06882,-24.07762 -0.146659,-29.32888 -0.438388,-29.571 -0.247888,-0.20573 -2.855304,-0.27332 -8.657378,-0.22443 l -8.302678,0.07 v 29.89792 29.89791 l 0.612431,2.77137 c 1.276614,5.77698 3.461729,10.14367 6.928194,13.84516 2.693379,2.876 4.839044,4.44595 8.598958,6.29177 4.30485,2.11335 8.449654,3.17451 14.816667,3.79348 2.30841,0.22439 8.919818,-0.12975 11.884766,-0.63664 z"
         style="fill:#ffffff;fill-rule:nonzero;stroke-width:0.26458332"
         inkscape:connector-curvature="0" />
      <path
         id="path5523"
         d="m -283.61442,164.44375 v -42.73021 h -8.46666 -8.46667 l -0.067,42.5818 c -0.0533,33.8899 7.9e-4,42.6252 0.26458,42.79442 0.18234,0.11698 4.02247,0.18376 8.53362,0.14841 l 8.20208,-0.0642 z"
         style="fill:#ffffff;fill-rule:nonzero;stroke-width:0.26458332"
         inkscape:connector-curvature="0" />
      <path
         id="path5521"
         d="m -206.81484,207.08551 c 0.26002,-0.16505 0.31924,-1.8668 0.26459,-7.60272 l -0.0704,-7.39008 -18.19911,-0.068 c -14.67168,-0.0548 -18.22478,-0.13486 -18.33154,-0.4131 -0.0728,-0.18982 8.62612,-15.69688 19.33102,-34.46015 13.86376,-24.30002 19.44229,-34.30533 19.38988,-34.77648 l -0.0736,-0.66146 h -29.50104 -29.50104 l -0.0702,7.60677 -0.0702,7.60677 h 15.86344 c 10.59467,0 15.91936,0.0905 16.03181,0.27243 0.0926,0.14983 -8.58267,15.56453 -19.27839,34.25488 -10.69572,18.69035 -19.52538,34.23019 -19.62149,34.53298 -0.43914,1.38362 -2.0063,1.31919 31.98212,1.31483 17.33554,-0.003 31.66991,-0.0998 31.85416,-0.21669 z"
         style="fill:#ffffff;fill-rule:nonzero;stroke-width:0.26458332"
         inkscape:connector-curvature="0" />
      <path
         id="path5519"
         d="M 7.956415,164.44375 V 121.71354 H -0.51025167 -8.9769183 l -0.06694,42.5818 c -0.053287,33.8899 0,42.6252 0.2645833,42.79442 0.1823244,0.11698 4.0224604,0.18376 8.53360627,0.14841 l 8.20208333,-0.0642 z"
         style="fill:#ffffff;fill-rule:nonzero;stroke-width:0.26458332"
         inkscape:connector-curvature="0" />
      <path
         id="path5517"
         d="m 84.755776,199.56718 0.07022,-7.60677 H 64.766505 c -15.249022,0 -20.135612,-0.0761 -20.376965,-0.3175 -0.449792,-0.44979 -0.449792,-11.6152 0,-12.065 0.240321,-0.2403 4.421479,-0.3175 17.197917,-0.3175 h 16.880416 v -7.4064 -7.4064 l -17.13177,-0.0681 -17.131771,-0.0681 v -13.62604 -13.62605 l 19.446875,-0.13229 19.446875,-0.13229 0.07022,-7.44461 c 0.06239,-6.61594 0.02328,-7.46266 -0.352372,-7.60677 -0.823383,-0.31596 -55.464313,-0.18406 -55.848541,0.13482 -0.499031,0.41416 -0.537792,84.61307 -0.03918,85.11168 0.245428,0.24543 6.919833,0.30321 29.038021,0.25136 l 28.719357,-0.0673 z"
         style="fill:#ffffff;fill-rule:nonzero;stroke-width:0.26458332"
         inkscape:connector-curvature="0" />
      <path
         inkscape:connector-curvature="0"
         id="path5515"
         transform="scale(0.26458333)"
         d="m -798.22266,78.609375 c -13.9106,0.03598 -18.99931,0.32316 -19.7207,0.921875 -1.30322,1.081629 -1.48437,20.87205 -1.48437,160.94531 0,87.84099 0.29943,160.0103 0.66601,160.37696 0.36662,0.36661 15.21668,0.66601 33,0.66601 h 32.33399 v -39.44141 c 0,-21.69254 0.3375,-39.63825 0.75,-39.88085 0.41249,-0.24261 10.15737,-0.60819 21.65625,-0.81055 l 20.90625,-0.36719 25.33007,38.88281 c 13.93153,21.38511 25.84235,39.49758 26.4668,40.25 1.691,2.03755 76.36003,2.03349 75.57813,-0.004 -0.28952,-0.75459 -14.97374,-23.05641 -32.63086,-49.5586 -17.65709,-26.50218 -31.83883,-48.61648 -31.51368,-49.14257 0.32504,-0.52611 2.47326,-1.90531 4.77344,-3.06641 21.94201,-11.07599 39.07218,-28.83016 47.61524,-49.35156 10.81629,-25.98186 11.76043,-62.10396 2.38086,-91.00977 -12.13119,-37.38579 -41.47773,-62.624658 -85.01758,-73.117186 -20.93208,-5.044362 -28.14495,-5.560029 -85.56055,-6.09961 -15.6611,-0.14718 -27.18294,-0.214947 -35.5293,-0.193359 z m 45.29493,58.410155 21,0.0977 c 17.3083,0.081 22.75794,0.47114 31,2.21679 32.4438,6.87156 47.5,26.42429 47.5,61.68555 0,39.57357 -18.40254,58.46415 -60.87891,62.49219 -16.0043,1.51768 -36.61426,1.32564 -38.00781,-0.35352 -0.81963,-0.98759 -1.05792,-18.49989 -0.8711,-63.75 z m 1506.5,13.5 v 125.56641 125.56445 l 50.75,-0.40039 c 43.60448,-0.34545 51.80601,-0.64627 58.25,-2.13477 27.05159,-6.24854 48.22999,-17.16305 64.74218,-33.36328 40.29234,-39.53084 47.81793,-107.08628 17.54883,-157.5332 -10.82351,-18.0386 -32.72626,-36.83167 -53.35156,-45.77734 -24.53771,-10.64258 -34.43928,-11.92188 -92.31836,-11.92188 z m 62.16992,44.03125 c 11.31055,-0.0554 29.39205,1.17038 37.28711,2.95117 24.16278,5.45011 42.38266,20.5936 50.98437,42.375 7.93758,20.09964 8.4927,46.7916 1.41992,68.14258 -9.25893,27.95028 -30.98904,44.44898 -63.83593,48.46485 -11.92759,1.45827 -34.30639,1.35576 -35.82618,-0.16407 -0.91309,-0.91313 -1.19921,-20.1297 -1.19921,-80.3789 0,-69.99591 0.17705,-79.32386 1.53515,-80.45118 0.75093,-0.62323 4.49361,-0.91427 9.63477,-0.93945 z m 279.28901,263.46875 c -2.1448,0 -3.2525,0.67158 -4.121,2.5 -4.5715,9.62389 -138.68682,317.9729 -139.08012,319.76367 l -0.49805,2.26563 31.33985,-0.26563 31.33792,-0.26367 6.6621,-15.94531 c 3.664,-8.76987 7.1691,-16.75735 7.789,-17.75 1.0678,-1.70982 4.5668,-1.80469 66.4961,-1.80469 51.1175,0 65.5788,0.2725 66.3282,1.25 0.5271,0.6875 4.0571,8.78752 7.8437,18 l 6.8848,16.75 h 34.2793 c 18.8537,0 34.2582,-0.33754 34.2324,-0.75 -0.026,-0.4125 -33.0134,-73.42498 -73.3047,-162.25 -73.1671,-161.30215 -73.2602,-161.5 -76.1895,-161.5 z m -368.69136,1.47461 c -25.57763,0.0341 -48.79431,0.45246 -49.56836,1.22656 -0.9233,0.9233 -1.19921,38.00612 -1.19921,160.83203 0,87.79832 0.3268,159.95977 0.72656,160.35938 0.39968,0.39968 29.08719,0.5381 63.75,0.30664 52.45048,-0.35033 64.32217,-0.68776 70.77929,-2.00977 38.82539,-7.95114 65.6244,-21.50724 89.2754,-45.1582 16.70411,-16.70407 27.99497,-34.76375 35.85937,-57.35742 11.89028,-34.15998 11.86461,-78.25948 -0.0644,-112.53125 -7.77581,-22.33924 -19.10518,-40.43318 -35.8125,-57.18945 -28.0193,-28.10158 -65.0616,-44.06259 -110.01367,-47.4043 -10.21541,-0.75942 -38.15479,-1.10834 -63.73243,-1.07422 z m -321.5625,0.11524 c -13.91059,0.036 -18.99926,0.32329 -19.7207,0.92187 -1.30322,1.08159 -1.48437,20.86638 -1.48437,160.91016 0,122.8603 0.27588,159.9556 1.19921,160.8789 0.88041,0.88041 9.24825,1.19922 31.41797,1.19922 16.61998,0 30.93077,-0.27365 31.80078,-0.60742 1.40527,-0.53919 1.58204,-4.99447 1.58204,-39.93945 0,-21.63372 0.3375,-39.53279 0.75,-39.77539 0.41249,-0.24265 10.15745,-0.60816 21.65625,-0.81055 l 20.90625,-0.36719 25.36718,39 c 13.95111,21.44999 26.30472,39.78747 27.45313,40.75 1.90337,1.5953 5.25605,1.75 37.91797,1.75 24.45067,0 36.04124,-0.34133 36.49414,-1.07422 0.3651,-0.5907 -14.01849,-23.1178 -31.96289,-50.06054 -17.94441,-26.94274 -32.36121,-49.41493 -32.03711,-49.93946 0.32428,-0.52448 2.47137,-1.90338 4.77148,-3.06445 21.94209,-11.07602 39.07211,-28.83016 47.61524,-49.35156 10.81617,-25.98187 11.76032,-62.10394 2.38086,-91.00977 -12.13131,-37.38576 -41.47769,-62.62465 -85.01758,-73.11719 -20.93212,-5.04438 -28.14495,-5.56004 -85.56055,-6.09961 -15.66109,-0.14718 -27.18294,-0.21497 -35.5293,-0.19335 z m 45.29493,58.41015 21,0.0977 c 17.30827,0.0809 22.7579,0.47114 31,2.21679 32.4438,6.87156 47.5,26.4243 47.5,61.68555 0,39.57358 -18.40261,58.46217 -60.87891,62.49024 -16.0043,1.51766 -36.61423,1.32749 -38.00781,-0.35157 -0.81959,-0.98759 -1.05799,-18.49987 -0.8711,-63.75 z m 292,0 24,0.0527 c 18.64459,0.0408 25.97534,0.44185 32.85351,1.80078 42.9775,8.49108 68.59967,34.76063 76.10547,78.02734 2.0027,11.54502 2.01543,35.56529 0.0254,47.23828 -7.90397,46.37477 -37.98905,73.8671 -86.78906,79.3086 -14.4409,1.61026 -44.15922,1.42455 -45.57813,-0.28516 -0.82371,-0.99258 -1.05926,-28.92121 -0.87304,-103.75 z m 351.82033,61.50977 c 0.6499,0.004 4.6078,10.43925 8.8183,23.25 4.2014,12.78259 13.5653,37.5265 20.8106,54.98632 7.2452,17.4598 12.8943,32.19732 12.5527,32.75 -0.9881,1.59886 -83.1568,1.3576 -83.7558,-0.24609 -0.2567,-0.68749 5.3516,-15.19998 12.4628,-32.25 11.3532,-27.22084 21.1802,-54.38157 26.3223,-72.75 0.8854,-3.16248 2.1406,-5.74515 2.7891,-5.74023 z"
         style="fill:#ffffff;fill-rule:nonzero;stroke-width:0.99999994" />
      <path
         id="path5503"
         d="m 5.6421046,64.050488 c 0.053287,-34.102476 0,-42.889346 -0.2645833,-43.056886 -0.4452409,-0.282694 -15.3176553,-0.270801 -15.7646953,0.01262 -0.57949,0.367366 -0.293238,39.896149 0.332423,45.90118 0.2843737,2.729428 0.3698341,4.555402 0.2202123,4.705014 -0.1495955,0.149613 -1.3100843,-1.066115 -2.9902153,-3.13258 -1.510136,-1.857393 -3.643418,-4.321267 -4.740619,-5.475276 C -18.662547,61.850554 -29.302898,51.750898 -41.21055,40.560883 -61.410218,21.578617 -62.917099,20.22085 -63.700134,20.296769 l -0.839284,0.08136 -0.06694,42.702129 c -0.04916,31.341146 0.01217,42.797592 0.230823,43.060932 0.237807,0.28656 1.80541,0.35881 7.784385,0.35881 4.117605,0 7.674901,-0.0723 7.905089,-0.1606 0.376211,-0.14436 0.417909,-2.03673 0.412512,-18.719269 -0.0058,-17.740902 -0.09766,-20.900892 -0.830131,-28.540471 -0.177561,-1.851967 -0.230399,-3.45931 -0.117448,-3.571875 0.11295,-0.112561 0.442092,0.093 0.731414,0.456801 1.861767,2.341067 5.346303,6.453856 6.697901,7.905543 0.876723,0.941668 11.527472,11.043623 23.668275,22.448789 C 2.190959,105.40249 4.0154463,107.04926 4.7629206,106.97623 l 0.8122444,-0.0794 z"
         style="fill:#ffffff;fill-rule:nonzero;stroke-width:0.26458332"
         inkscape:connector-curvature="0" />
      <path
         id="path5501"
         d="m -81.402558,98.760938 0.07022,-7.60677 h -20.059492 c -15.24902,0 -20.1356,-0.07614 -20.37696,-0.3175 -0.44979,-0.449792 -0.44979,-11.615208 0,-12.065 0.2403,-0.240308 4.42148,-0.3175 17.19791,-0.3175 h 16.880419 v -7.406404 -7.406402 l -17.131769,-0.06808 -17.13177,-0.06808 V 49.879169 36.253128 l 19.44687,-0.132292 19.446877,-0.132291 0.07025,-7.455352 c 0.0658,-6.98645 0.04022,-7.464875 -0.40685,-7.606771 -0.262413,-0.08328 -12.870285,-0.151418 -28.017537,-0.151418 -22.85934,0 -27.59106,0.06099 -27.83823,0.358817 -0.21855,0.263334 -0.27998,11.616369 -0.23084,42.664061 l 0.067,42.305248 18.65312,0.13648 c 10.25922,0.0751 23.296568,0.13459 28.97188,0.13229 l 10.31875,-0.004 0.07019,-7.606774 z"
         style="fill:#ffffff;fill-rule:nonzero;stroke-width:0.26458332"
         inkscape:connector-curvature="0" />
      <path
         id="path5499"
         d="m 60.409082,106.2825 c 0.259979,-0.1651 0.343958,-7.594282 0.396875,-35.119383 l 0.06712,-34.909989 12.108735,-0.06882 12.108736,-0.06882 -0.07019,-7.604098 -0.07019,-7.604099 H 52.00954 19.068915 l -0.07019,7.604099 -0.07019,7.604098 12.108736,0.06882 12.108735,0.06882 0.06713,34.909989 c 0.05292,27.525101 0.136896,34.954283 0.396875,35.119383 0.181372,0.11517 3.961157,0.2094 8.399542,0.2094 4.438385,0 8.21817,-0.0942 8.399542,-0.2094 z"
         style="fill:#ffffff;fill-rule:nonzero;stroke-width:0.26458332"
         inkscape:connector-curvature="0" />
      <path
         id="path5497"
         d="m 156.72244,98.760938 0.0702,-7.60677 h -20.05949 c -15.24902,0 -20.13561,-0.07614 -20.37696,-0.3175 -0.44979,-0.449792 -0.44979,-11.615208 0,-12.065 0.24032,-0.240308 4.42148,-0.3175 17.19791,-0.3175 h 16.88042 V 71.047764 63.641362 L 133.30277,63.573285 116.171,63.50521 V 49.879169 36.253128 l 19.44687,-0.132292 19.44688,-0.132291 0.0702,-7.44461 c 0.0624,-6.615941 0.0233,-7.46266 -0.35237,-7.606771 -0.82339,-0.315965 -55.464316,-0.184063 -55.848544,0.134818 -0.499031,0.414161 -0.537792,84.613078 -0.03919,85.111688 0.245427,0.24542 6.919824,0.3032 29.038014,0.25135 l 28.71936,-0.0673 z"
         style="fill:#ffffff;fill-rule:nonzero;stroke-width:0.26458332"
         inkscape:connector-curvature="0" />
      <path
         id="path5495"
         d="m -269.39558,93.33698 0.0687,-12.898437 16.93334,-0.132291 16.93333,-0.132292 v -7.672917 -7.672916 l -16.93333,-0.132292 -16.93334,-0.132291 V 50.408336 36.253128 l 18.65313,-0.132292 18.65312,-0.132291 V 28.44792 20.907295 l -27.09117,-0.0674 c -19.79846,-0.04925 -27.18791,0.01289 -27.45052,0.230836 -0.3,0.248976 -0.35935,7.27746 -0.35935,42.555071 0,23.241261 0.0794,42.336218 0.17639,42.433228 0.097,0.097 4.02494,0.17639 8.72873,0.17639 h 8.55234 z"
         style="fill:#ffffff;fill-opacity:1;fill-rule:nonzero;stroke-width:0.26458332"
         inkscape:connector-curvature="0" />
      <path
         id="path5477"
         d="m 312.09496,100.41458 v -5.820829 l -15.41198,0.0096 c -8.60407,0.0054 -15.58729,-0.09487 -15.80886,-0.226923 -0.32149,-0.191616 -0.41203,-1.060301 -0.47664,-4.573682 -0.0439,-2.385428 0.0286,-4.515734 0.16107,-4.734015 0.20797,-0.342702 2.0337,-0.406241 13.37509,-0.465492 l 13.13423,-0.06861 v -5.686073 -5.686071 l -12.89843,0.0096 c -7.13841,0.0053 -13.07569,-0.09613 -13.29532,-0.227195 -0.33956,-0.202615 -0.40809,-1.703723 -0.4745,-10.394516 -0.0438,-5.725371 0.0265,-10.330878 0.16108,-10.554575 0.2069,-0.343985 2.23591,-0.405982 15.22502,-0.465206 l 14.98632,-0.06833 v -5.81865 -5.818648 h -21.96042 -21.96041 v 33.205207 33.205208 h 22.62187 22.62188 v -5.82083 z"
         style="fill:#ffffff;fill-rule:nonzero;stroke-width:0.26458332"
         inkscape:connector-curvature="0" />
    </g>
  </g>
</svg>
